<svg xmlns="http://www.w3.org/2000/svg" viewBox="0 0 440 440"><defs><radialGradient id="plate"><stop stop-color="#fafaf9"/><stop offset="1" stop-color="#e5e5e2"/></radialGradient><linearGradient id="edge" x2="1" y2="1"><stop stop-color="#fff"/><stop offset="1" stop-color="#c8c8c4"/></linearGradient></defs><rect x="21" y="21" width="398" height="398" rx="52" fill="url(#plate)" stroke="url(#edge)"/><rect x="32" y="32" width="376" height="376" rx="44" fill="none" stroke="#d4d4d0" stroke-width=".7"/><circle cx="49" cy="49" r="4" fill="#d1d1cd"/><path d="M47 49h4" stroke="#92928d" stroke-width=".8"/><circle cx="391" cy="49" r="4" fill="#d1d1cd"/><path d="M389 49h4" stroke="#92928d" stroke-width=".8"/><circle cx="49" cy="391" r="4" fill="#d1d1cd"/><path d="M47 391h4" stroke="#92928d" stroke-width=".8"/><circle cx="391" cy="391" r="4" fill="#d1d1cd"/><path d="M389 391h4" stroke="#92928d" stroke-width=".8"/><circle cx="189" cy="75" r="1.05" fill="#282826"/><circle cx="195" cy="75" r="1.05" fill="#282826"/><circle cx="201" cy="75" r="1.05" fill="#282826"/><circle cx="207" cy="75" r="1.05" fill="#282826"/><circle cx="213" cy="75" r="1.05" fill="#282826"/><circle cx="219" cy="75" r="1.05" fill="#282826"/><circle cx="225" cy="75" r="1.05" fill="#282826"/><circle cx="231" cy="75" r="1.05" fill="#282826"/><circle cx="237" cy="75" r="1.05" fill="#282826"/><circle cx="243" cy="75" r="1.05" fill="#282826"/><circle cx="249" cy="75" r="1.05" fill="#282826"/><circle cx="171" cy="81" r="1.05" fill="#282826"/><circle cx="177" cy="81" r="1.05" fill="#282826"/><circle cx="183" cy="81" r="1.05" fill="#282826"/><circle cx="189" cy="81" r="1.55" fill="#282826"/><circle cx="195" cy="81" r="1.55" fill="#282826"/><circle cx="201" cy="81" r="1.55" fill="#282826"/><circle cx="207" cy="81" r="1.55" fill="#282826"/><circle cx="213" cy="81" r="1.55" fill="#282826"/><circle cx="219" cy="81" r="1.55" fill="#282826"/><circle cx="225" cy="81" r="1.55" fill="#282826"/><circle cx="231" cy="81" r="1.55" fill="#282826"/><circle cx="237" cy="81" r="1.55" fill="#282826"/><circle cx="243" cy="81" r="1.55" fill="#282826"/><circle cx="249" cy="81" r="1.55" fill="#282826"/><circle cx="255" cy="81" r="1.05" fill="#282826"/><circle cx="261" cy="81" r="1.05" fill="#282826"/><circle cx="267" cy="81" r="1.05" fill="#282826"/><circle cx="273" cy="81" r="1.05" fill="#282826"/><circle cx="159" cy="87" r="1.05" fill="#282826"/><circle cx="165" cy="87" r="1.05" fill="#282826"/><circle cx="171" cy="87" r="1.55" fill="#282826"/><circle cx="177" cy="87" r="1.55" fill="#282826"/><circle cx="183" cy="87" r="1.55" fill="#282826"/><circle cx="189" cy="87" r="1.55" fill="#282826"/><circle cx="195" cy="87" r="1.55" fill="#282826"/><circle cx="201" cy="87" r="1.55" fill="#282826"/><circle cx="207" cy="87" r="1.55" fill="#282826"/><circle cx="213" cy="87" r="1.55" fill="#282826"/><circle cx="219" cy="87" r="1.55" fill="#282826"/><circle cx="225" cy="87" r="1.55" fill="#282826"/><circle cx="231" cy="87" r="1.55" fill="#282826"/><circle cx="237" cy="87" r="1.55" fill="#282826"/><circle cx="243" cy="87" r="1.55" fill="#282826"/><circle cx="249" cy="87" r="1.55" fill="#282826"/><circle cx="255" cy="87" r="1.55" fill="#282826"/><circle cx="261" cy="87" r="1.55" fill="#282826"/><circle cx="267" cy="87" r="1.55" fill="#282826"/><circle cx="273" cy="87" r="1.05" fill="#282826"/><circle cx="279" cy="87" r="1.05" fill="#282826"/><circle cx="285" cy="87" r="1.05" fill="#282826"/><circle cx="147" cy="93" r="1.05" fill="#282826"/><circle cx="153" cy="93" r="1.05" fill="#282826"/><circle cx="159" cy="93" r="1.55" fill="#282826"/><circle cx="165" cy="93" r="1.55" fill="#282826"/><circle cx="171" cy="93" r="1.55" fill="#282826"/><circle cx="177" cy="93" r="1.55" fill="#282826"/><circle cx="183" cy="93" r="1.55" fill="#282826"/><circle cx="189" cy="93" r="1.55" fill="#282826"/><circle cx="195" cy="93" r="1.55" fill="#282826"/><circle cx="201" cy="93" r="1.55" fill="#282826"/><circle cx="207" cy="93" r="1.55" fill="#282826"/><circle cx="213" cy="93" r="1.55" fill="#282826"/><circle cx="219" cy="93" r="1.55" fill="#282826"/><circle cx="225" cy="93" r="1.55" fill="#282826"/><circle cx="231" cy="93" r="1.55" fill="#282826"/><circle cx="237" cy="93" r="1.55" fill="#282826"/><circle cx="243" cy="93" r="1.55" fill="#282826"/><circle cx="249" cy="93" r="1.55" fill="#282826"/><circle cx="255" cy="93" r="1.55" fill="#282826"/><circle cx="261" cy="93" r="1.55" fill="#282826"/><circle cx="267" cy="93" r="1.55" fill="#282826"/><circle cx="273" cy="93" r="1.55" fill="#282826"/><circle cx="279" cy="93" r="1.55" fill="#282826"/><circle cx="285" cy="93" r="1.55" fill="#282826"/><circle cx="291" cy="93" r="1.05" fill="#282826"/><circle cx="297" cy="93" r="1.05" fill="#282826"/><circle cx="135" cy="99" r="1.05" fill="#282826"/><circle cx="141" cy="99" r="1.05" fill="#282826"/><circle cx="147" cy="99" r="1.55" fill="#282826"/><circle cx="153" cy="99" r="1.55" fill="#282826"/><circle cx="159" cy="99" r="1.55" fill="#282826"/><circle cx="165" cy="99" r="1.55" fill="#282826"/><circle cx="171" cy="99" r="1.55" fill="#282826"/><circle cx="177" cy="99" r="1.55" fill="#282826"/><circle cx="183" cy="99" r="1.55" fill="#282826"/><circle cx="189" cy="99" r="1.55" fill="#282826"/><circle cx="195" cy="99" r="1.55" fill="#282826"/><circle cx="201" cy="99" r="1.55" fill="#282826"/><circle cx="207" cy="99" r="1.55" fill="#282826"/><circle cx="213" cy="99" r="1.55" fill="#282826"/><circle cx="219" cy="99" r="1.55" fill="#282826"/><circle cx="225" cy="99" r="1.55" fill="#282826"/><circle cx="231" cy="99" r="1.55" fill="#282826"/><circle cx="237" cy="99" r="1.55" fill="#282826"/><circle cx="243" cy="99" r="1.55" fill="#282826"/><circle cx="249" cy="99" r="1.55" fill="#282826"/><circle cx="255" cy="99" r="1.55" fill="#282826"/><circle cx="261" cy="99" r="1.55" fill="#282826"/><circle cx="267" cy="99" r="1.55" fill="#282826"/><circle cx="273" cy="99" r="1.55" fill="#282826"/><circle cx="279" cy="99" r="1.55" fill="#282826"/><circle cx="285" cy="99" r="1.55" fill="#282826"/><circle cx="291" cy="99" r="1.55" fill="#282826"/><circle cx="297" cy="99" r="1.05" fill="#282826"/><circle cx="303" cy="99" r="1.05" fill="#282826"/><circle cx="129" cy="105" r="1.05" fill="#282826"/><circle cx="135" cy="105" r="1.05" fill="#282826"/><circle cx="141" cy="105" r="1.55" fill="#282826"/><circle cx="147" cy="105" r="1.55" fill="#282826"/><circle cx="153" cy="105" r="1.55" fill="#282826"/><circle cx="159" cy="105" r="1.55" fill="#282826"/><circle cx="165" cy="105" r="1.55" fill="#282826"/><circle cx="171" cy="105" r="1.55" fill="#282826"/><circle cx="177" cy="105" r="1.55" fill="#282826"/><circle cx="183" cy="105" r="1.55" fill="#282826"/><circle cx="189" cy="105" r="1.55" fill="#282826"/><circle cx="195" cy="105" r="1.55" fill="#282826"/><circle cx="201" cy="105" r="1.55" fill="#282826"/><circle cx="207" cy="105" r="1.55" fill="#282826"/><circle cx="213" cy="105" r="1.55" fill="#282826"/><circle cx="219" cy="105" r="1.55" fill="#282826"/><circle cx="225" cy="105" r="1.55" fill="#282826"/><circle cx="231" cy="105" r="1.55" fill="#282826"/><circle cx="237" cy="105" r="1.55" fill="#282826"/><circle cx="243" cy="105" r="1.55" fill="#282826"/><circle cx="249" cy="105" r="1.55" fill="#282826"/><circle cx="255" cy="105" r="1.55" fill="#282826"/><circle cx="261" cy="105" r="1.55" fill="#282826"/><circle cx="267" cy="105" r="1.55" fill="#282826"/><circle cx="273" cy="105" r="1.55" fill="#282826"/><circle cx="279" cy="105" r="1.55" fill="#282826"/><circle cx="285" cy="105" r="1.55" fill="#282826"/><circle cx="291" cy="105" r="1.55" fill="#282826"/><circle cx="297" cy="105" r="1.55" fill="#282826"/><circle cx="303" cy="105" r="1.55" fill="#282826"/><circle cx="309" cy="105" r="1.05" fill="#282826"/><circle cx="123" cy="111" r="1.05" fill="#282826"/><circle cx="129" cy="111" r="1.55" fill="#282826"/><circle cx="135" cy="111" r="1.55" fill="#282826"/><circle cx="141" cy="111" r="1.55" fill="#282826"/><circle cx="147" cy="111" r="1.55" fill="#282826"/><circle cx="153" cy="111" r="1.55" fill="#282826"/><circle cx="159" cy="111" r="1.55" fill="#282826"/><circle cx="165" cy="111" r="1.55" fill="#282826"/><circle cx="171" cy="111" r="1.55" fill="#282826"/><circle cx="177" cy="111" r="1.55" fill="#282826"/><circle cx="183" cy="111" r="1.55" fill="#282826"/><circle cx="189" cy="111" r="1.55" fill="#282826"/><circle cx="195" cy="111" r="1.05" fill="#282826"/><circle cx="201" cy="111" r="1.05" fill="#282826"/><circle cx="207" cy="111" r="1.05" fill="#282826"/><circle cx="213" cy="111" r="1.05" fill="#282826"/><circle cx="219" cy="111" r="1.05" fill="#282826"/><circle cx="225" cy="111" r="1.05" fill="#282826"/><circle cx="231" cy="111" r="1.05" fill="#282826"/><circle cx="237" cy="111" r="1.05" fill="#282826"/><circle cx="243" cy="111" r="1.05" fill="#282826"/><circle cx="249" cy="111" r="1.55" fill="#282826"/><circle cx="255" cy="111" r="1.55" fill="#282826"/><circle cx="261" cy="111" r="1.55" fill="#282826"/><circle cx="267" cy="111" r="1.55" fill="#282826"/><circle cx="273" cy="111" r="1.55" fill="#282826"/><circle cx="279" cy="111" r="1.55" fill="#282826"/><circle cx="285" cy="111" r="1.55" fill="#282826"/><circle cx="291" cy="111" r="1.55" fill="#282826"/><circle cx="297" cy="111" r="1.55" fill="#282826"/><circle cx="303" cy="111" r="1.55" fill="#282826"/><circle cx="309" cy="111" r="1.55" fill="#282826"/><circle cx="315" cy="111" r="1.05" fill="#282826"/><circle cx="117" cy="117" r="1.05" fill="#282826"/><circle cx="123" cy="117" r="1.55" fill="#282826"/><circle cx="129" cy="117" r="1.55" fill="#282826"/><circle cx="135" cy="117" r="1.55" fill="#282826"/><circle cx="141" cy="117" r="1.55" fill="#282826"/><circle cx="147" cy="117" r="1.55" fill="#282826"/><circle cx="153" cy="117" r="1.55" fill="#282826"/><circle cx="159" cy="117" r="1.55" fill="#282826"/><circle cx="165" cy="117" r="1.55" fill="#282826"/><circle cx="171" cy="117" r="1.55" fill="#282826"/><circle cx="177" cy="117" r="1.05" fill="#282826"/><circle cx="183" cy="117" r="1.05" fill="#282826"/><circle cx="189" cy="117" r="1.05" fill="#282826"/><circle cx="195" cy="117" r="1.05" fill="#282826"/><circle cx="249" cy="117" r="1.05" fill="#282826"/><circle cx="255" cy="117" r="1.05" fill="#282826"/><circle cx="261" cy="117" r="1.05" fill="#282826"/><circle cx="267" cy="117" r="1.55" fill="#282826"/><circle cx="273" cy="117" r="1.55" fill="#282826"/><circle cx="279" cy="117" r="1.55" fill="#282826"/><circle cx="285" cy="117" r="1.55" fill="#282826"/><circle cx="291" cy="117" r="1.55" fill="#282826"/><circle cx="297" cy="117" r="1.55" fill="#282826"/><circle cx="303" cy="117" r="1.55" fill="#282826"/><circle cx="309" cy="117" r="1.55" fill="#282826"/><circle cx="315" cy="117" r="1.55" fill="#282826"/><circle cx="321" cy="117" r="1.05" fill="#282826"/><circle cx="111" cy="123" r="1.05" fill="#282826"/><circle cx="117" cy="123" r="1.55" fill="#282826"/><circle cx="123" cy="123" r="1.55" fill="#282826"/><circle cx="129" cy="123" r="1.55" fill="#282826"/><circle cx="135" cy="123" r="1.55" fill="#282826"/><circle cx="141" cy="123" r="1.55" fill="#282826"/><circle cx="147" cy="123" r="1.55" fill="#282826"/><circle cx="153" cy="123" r="1.55" fill="#282826"/><circle cx="159" cy="123" r="1.55" fill="#282826"/><circle cx="165" cy="123" r="1.05" fill="#282826"/><circle cx="171" cy="123" r="1.05" fill="#282826"/><circle cx="177" cy="123" r="1.05" fill="#282826"/><circle cx="267" cy="123" r="1.05" fill="#282826"/><circle cx="273" cy="123" r="1.05" fill="#282826"/><circle cx="279" cy="123" r="1.55" fill="#282826"/><circle cx="285" cy="123" r="1.55" fill="#282826"/><circle cx="291" cy="123" r="1.55" fill="#282826"/><circle cx="297" cy="123" r="1.55" fill="#282826"/><circle cx="303" cy="123" r="1.55" fill="#282826"/><circle cx="309" cy="123" r="1.55" fill="#282826"/><circle cx="315" cy="123" r="1.55" fill="#282826"/><circle cx="321" cy="123" r="1.55" fill="#282826"/><circle cx="327" cy="123" r="1.05" fill="#282826"/><circle cx="105" cy="129" r="1.05" fill="#282826"/><circle cx="111" cy="129" r="1.55" fill="#282826"/><circle cx="117" cy="129" r="1.55" fill="#282826"/><circle cx="123" cy="129" r="1.55" fill="#282826"/><circle cx="129" cy="129" r="1.55" fill="#282826"/><circle cx="135" cy="129" r="1.55" fill="#282826"/><circle cx="141" cy="129" r="1.55" fill="#282826"/><circle cx="147" cy="129" r="1.55" fill="#282826"/><circle cx="153" cy="129" r="1.55" fill="#282826"/><circle cx="159" cy="129" r="1.05" fill="#282826"/><circle cx="165" cy="129" r="1.05" fill="#282826"/><circle cx="279" cy="129" r="1.05" fill="#282826"/><circle cx="285" cy="129" r="1.55" fill="#282826"/><circle cx="291" cy="129" r="1.55" fill="#282826"/><circle cx="297" cy="129" r="1.55" fill="#282826"/><circle cx="303" cy="129" r="1.55" fill="#282826"/><circle cx="309" cy="129" r="1.55" fill="#282826"/><circle cx="315" cy="129" r="1.55" fill="#282826"/><circle cx="321" cy="129" r="1.55" fill="#282826"/><circle cx="327" cy="129" r="1.55" fill="#282826"/><circle cx="333" cy="129" r="1.05" fill="#282826"/><circle cx="99" cy="135" r="1.05" fill="#282826"/><circle cx="105" cy="135" r="1.05" fill="#282826"/><circle cx="111" cy="135" r="1.55" fill="#282826"/><circle cx="117" cy="135" r="1.55" fill="#282826"/><circle cx="123" cy="135" r="1.55" fill="#282826"/><circle cx="129" cy="135" r="1.55" fill="#282826"/><circle cx="135" cy="135" r="1.55" fill="#282826"/><circle cx="141" cy="135" r="1.55" fill="#282826"/><circle cx="147" cy="135" r="1.55" fill="#282826"/><circle cx="153" cy="135" r="1.05" fill="#282826"/><circle cx="285" cy="135" r="1.05" fill="#282826"/><circle cx="291" cy="135" r="1.05" fill="#282826"/><circle cx="297" cy="135" r="1.55" fill="#282826"/><circle cx="303" cy="135" r="1.55" fill="#282826"/><circle cx="309" cy="135" r="1.55" fill="#282826"/><circle cx="315" cy="135" r="1.55" fill="#282826"/><circle cx="321" cy="135" r="1.55" fill="#282826"/><circle cx="327" cy="135" r="1.55" fill="#282826"/><circle cx="333" cy="135" r="1.55" fill="#282826"/><circle cx="339" cy="135" r="1.05" fill="#282826"/><circle cx="99" cy="141" r="1.05" fill="#282826"/><circle cx="105" cy="141" r="1.55" fill="#282826"/><circle cx="111" cy="141" r="1.55" fill="#282826"/><circle cx="117" cy="141" r="1.55" fill="#282826"/><circle cx="123" cy="141" r="1.55" fill="#282826"/><circle cx="129" cy="141" r="1.55" fill="#282826"/><circle cx="135" cy="141" r="1.55" fill="#282826"/><circle cx="141" cy="141" r="1.55" fill="#282826"/><circle cx="147" cy="141" r="1.05" fill="#282826"/><circle cx="291" cy="141" r="1.05" fill="#282826"/><circle cx="297" cy="141" r="1.05" fill="#282826"/><circle cx="303" cy="141" r="1.55" fill="#282826"/><circle cx="309" cy="141" r="1.55" fill="#282826"/><circle cx="315" cy="141" r="1.55" fill="#282826"/><circle cx="321" cy="141" r="1.55" fill="#282826"/><circle cx="327" cy="141" r="1.55" fill="#282826"/><circle cx="333" cy="141" r="1.55" fill="#282826"/><circle cx="339" cy="141" r="1.05" fill="#282826"/><circle cx="345" cy="141" r="1.05" fill="#282826"/><circle cx="93" cy="147" r="1.05" fill="#282826"/><circle cx="99" cy="147" r="1.55" fill="#282826"/><circle cx="105" cy="147" r="1.55" fill="#282826"/><circle cx="111" cy="147" r="1.55" fill="#282826"/><circle cx="117" cy="147" r="1.55" fill="#282826"/><circle cx="123" cy="147" r="1.55" fill="#282826"/><circle cx="129" cy="147" r="1.55" fill="#282826"/><circle cx="135" cy="147" r="1.55" fill="#282826"/><circle cx="141" cy="147" r="1.05" fill="#282826"/><circle cx="297" cy="147" r="1.05" fill="#282826"/><circle cx="303" cy="147" r="1.05" fill="#282826"/><circle cx="309" cy="147" r="1.55" fill="#282826"/><circle cx="315" cy="147" r="1.55" fill="#282826"/><circle cx="321" cy="147" r="1.55" fill="#282826"/><circle cx="327" cy="147" r="1.55" fill="#282826"/><circle cx="333" cy="147" r="1.55" fill="#282826"/><circle cx="339" cy="147" r="1.55" fill="#282826"/><circle cx="345" cy="147" r="1.05" fill="#282826"/><circle cx="93" cy="153" r="1.05" fill="#282826"/><circle cx="99" cy="153" r="1.55" fill="#282826"/><circle cx="105" cy="153" r="1.55" fill="#282826"/><circle cx="111" cy="153" r="1.55" fill="#282826"/><circle cx="117" cy="153" r="1.55" fill="#282826"/><circle cx="123" cy="153" r="1.55" fill="#282826"/><circle cx="129" cy="153" r="1.55" fill="#282826"/><circle cx="135" cy="153" r="1.05" fill="#282826"/><circle cx="303" cy="153" r="1.05" fill="#282826"/><circle cx="309" cy="153" r="1.55" fill="#282826"/><circle cx="315" cy="153" r="1.55" fill="#282826"/><circle cx="321" cy="153" r="1.55" fill="#282826"/><circle cx="327" cy="153" r="1.55" fill="#282826"/><circle cx="333" cy="153" r="1.55" fill="#282826"/><circle cx="339" cy="153" r="1.55" fill="#282826"/><circle cx="345" cy="153" r="1.55" fill="#282826"/><circle cx="351" cy="153" r="1.05" fill="#282826"/><circle cx="87" cy="159" r="1.05" fill="#282826"/><circle cx="93" cy="159" r="1.55" fill="#282826"/><circle cx="99" cy="159" r="1.55" fill="#282826"/><circle cx="105" cy="159" r="1.55" fill="#282826"/><circle cx="111" cy="159" r="1.55" fill="#282826"/><circle cx="117" cy="159" r="1.55" fill="#282826"/><circle cx="123" cy="159" r="1.55" fill="#282826"/><circle cx="129" cy="159" r="1.05" fill="#282826"/><circle cx="309" cy="159" r="1.05" fill="#282826"/><circle cx="315" cy="159" r="1.55" fill="#282826"/><circle cx="321" cy="159" r="1.55" fill="#282826"/><circle cx="327" cy="159" r="1.55" fill="#282826"/><circle cx="333" cy="159" r="1.55" fill="#282826"/><circle cx="339" cy="159" r="1.55" fill="#282826"/><circle cx="345" cy="159" r="1.55" fill="#282826"/><circle cx="351" cy="159" r="1.05" fill="#282826"/><circle cx="87" cy="165" r="1.05" fill="#282826"/><circle cx="93" cy="165" r="1.55" fill="#282826"/><circle cx="99" cy="165" r="1.55" fill="#282826"/><circle cx="105" cy="165" r="1.55" fill="#282826"/><circle cx="111" cy="165" r="1.55" fill="#282826"/><circle cx="117" cy="165" r="1.55" fill="#282826"/><circle cx="123" cy="165" r="1.55" fill="#282826"/><circle cx="129" cy="165" r="1.05" fill="#282826"/><circle cx="81" cy="171" r="1.05" fill="#282826"/><circle cx="87" cy="171" r="1.05" fill="#282826"/><circle cx="93" cy="171" r="1.55" fill="#282826"/><circle cx="99" cy="171" r="1.55" fill="#282826"/><circle cx="105" cy="171" r="1.55" fill="#282826"/><circle cx="111" cy="171" r="1.55" fill="#282826"/><circle cx="117" cy="171" r="1.55" fill="#282826"/><circle cx="123" cy="171" r="1.05" fill="#282826"/><circle cx="81" cy="177" r="1.05" fill="#282826"/><circle cx="87" cy="177" r="1.55" fill="#282826"/><circle cx="93" cy="177" r="1.55" fill="#282826"/><circle cx="99" cy="177" r="1.55" fill="#282826"/><circle cx="105" cy="177" r="1.55" fill="#282826"/><circle cx="111" cy="177" r="1.55" fill="#282826"/><circle cx="117" cy="177" r="1.55" fill="#282826"/><circle cx="123" cy="177" r="1.05" fill="#282826"/><circle cx="81" cy="183" r="1.05" fill="#282826"/><circle cx="87" cy="183" r="1.55" fill="#282826"/><circle cx="93" cy="183" r="1.55" fill="#282826"/><circle cx="99" cy="183" r="1.55" fill="#282826"/><circle cx="105" cy="183" r="1.55" fill="#282826"/><circle cx="111" cy="183" r="1.55" fill="#282826"/><circle cx="117" cy="183" r="1.05" fill="#282826"/><circle cx="81" cy="189" r="1.05" fill="#282826"/><circle cx="87" cy="189" r="1.55" fill="#282826"/><circle cx="93" cy="189" r="1.55" fill="#282826"/><circle cx="99" cy="189" r="1.55" fill="#282826"/><circle cx="105" cy="189" r="1.55" fill="#282826"/><circle cx="111" cy="189" r="1.55" fill="#282826"/><circle cx="117" cy="189" r="1.05" fill="#282826"/><circle cx="75" cy="195" r="1.05" fill="#282826"/><circle cx="81" cy="195" r="1.55" fill="#282826"/><circle cx="87" cy="195" r="1.55" fill="#282826"/><circle cx="93" cy="195" r="1.55" fill="#282826"/><circle cx="99" cy="195" r="1.55" fill="#282826"/><circle cx="105" cy="195" r="1.55" fill="#282826"/><circle cx="111" cy="195" r="1.55" fill="#282826"/><circle cx="117" cy="195" r="1.05" fill="#282826"/><circle cx="75" cy="201" r="1.05" fill="#282826"/><circle cx="81" cy="201" r="1.55" fill="#282826"/><circle cx="87" cy="201" r="1.55" fill="#282826"/><circle cx="93" cy="201" r="1.55" fill="#282826"/><circle cx="99" cy="201" r="1.55" fill="#282826"/><circle cx="105" cy="201" r="1.55" fill="#282826"/><circle cx="111" cy="201" r="1.55" fill="#282826"/><circle cx="117" cy="201" r="1.05" fill="#282826"/><circle cx="75" cy="207" r="1.05" fill="#282826"/><circle cx="81" cy="207" r="1.55" fill="#282826"/><circle cx="87" cy="207" r="1.55" fill="#282826"/><circle cx="93" cy="207" r="1.55" fill="#282826"/><circle cx="99" cy="207" r="1.55" fill="#282826"/><circle cx="105" cy="207" r="1.55" fill="#282826"/><circle cx="111" cy="207" r="1.05" fill="#282826"/><circle cx="75" cy="213" r="1.05" fill="#282826"/><circle cx="81" cy="213" r="1.55" fill="#282826"/><circle cx="87" cy="213" r="1.55" fill="#282826"/><circle cx="93" cy="213" r="1.55" fill="#282826"/><circle cx="99" cy="213" r="1.55" fill="#282826"/><circle cx="105" cy="213" r="1.55" fill="#282826"/><circle cx="111" cy="213" r="1.05" fill="#282826"/><circle cx="75" cy="219" r="1.05" fill="#282826"/><circle cx="81" cy="219" r="1.55" fill="#282826"/><circle cx="87" cy="219" r="1.55" fill="#282826"/><circle cx="93" cy="219" r="1.55" fill="#282826"/><circle cx="99" cy="219" r="1.55" fill="#282826"/><circle cx="105" cy="219" r="1.55" fill="#282826"/><circle cx="111" cy="219" r="1.05" fill="#282826"/><circle cx="75" cy="225" r="1.05" fill="#282826"/><circle cx="81" cy="225" r="1.55" fill="#282826"/><circle cx="87" cy="225" r="1.55" fill="#282826"/><circle cx="93" cy="225" r="1.55" fill="#282826"/><circle cx="99" cy="225" r="1.55" fill="#282826"/><circle cx="105" cy="225" r="1.55" fill="#282826"/><circle cx="111" cy="225" r="1.05" fill="#282826"/><circle cx="75" cy="231" r="1.05" fill="#282826"/><circle cx="81" cy="231" r="1.55" fill="#282826"/><circle cx="87" cy="231" r="1.55" fill="#282826"/><circle cx="93" cy="231" r="1.55" fill="#282826"/><circle cx="99" cy="231" r="1.55" fill="#282826"/><circle cx="105" cy="231" r="1.55" fill="#282826"/><circle cx="111" cy="231" r="1.05" fill="#282826"/><circle cx="75" cy="237" r="1.05" fill="#282826"/><circle cx="81" cy="237" r="1.55" fill="#282826"/><circle cx="87" cy="237" r="1.55" fill="#282826"/><circle cx="93" cy="237" r="1.55" fill="#282826"/><circle cx="99" cy="237" r="1.55" fill="#282826"/><circle cx="105" cy="237" r="1.55" fill="#282826"/><circle cx="111" cy="237" r="1.55" fill="#282826"/><circle cx="117" cy="237" r="1.05" fill="#282826"/><circle cx="81" cy="243" r="1.05" fill="#282826"/><circle cx="87" cy="243" r="1.55" fill="#282826"/><circle cx="93" cy="243" r="1.55" fill="#282826"/><circle cx="99" cy="243" r="1.55" fill="#282826"/><circle cx="105" cy="243" r="1.55" fill="#282826"/><circle cx="111" cy="243" r="1.55" fill="#282826"/><circle cx="117" cy="243" r="1.05" fill="#282826"/><circle cx="81" cy="249" r="1.05" fill="#282826"/><circle cx="87" cy="249" r="1.55" fill="#282826"/><circle cx="93" cy="249" r="1.55" fill="#282826"/><circle cx="99" cy="249" r="1.55" fill="#282826"/><circle cx="105" cy="249" r="1.55" fill="#282826"/><circle cx="111" cy="249" r="1.55" fill="#282826"/><circle cx="117" cy="249" r="1.05" fill="#282826"/><circle cx="81" cy="255" r="1.05" fill="#282826"/><circle cx="87" cy="255" r="1.55" fill="#282826"/><circle cx="93" cy="255" r="1.55" fill="#282826"/><circle cx="99" cy="255" r="1.55" fill="#282826"/><circle cx="105" cy="255" r="1.55" fill="#282826"/><circle cx="111" cy="255" r="1.55" fill="#282826"/><circle cx="117" cy="255" r="1.05" fill="#282826"/><circle cx="81" cy="261" r="1.05" fill="#282826"/><circle cx="87" cy="261" r="1.55" fill="#282826"/><circle cx="93" cy="261" r="1.55" fill="#282826"/><circle cx="99" cy="261" r="1.55" fill="#282826"/><circle cx="105" cy="261" r="1.55" fill="#282826"/><circle cx="111" cy="261" r="1.55" fill="#282826"/><circle cx="117" cy="261" r="1.55" fill="#282826"/><circle cx="123" cy="261" r="1.05" fill="#282826"/><circle cx="87" cy="267" r="1.05" fill="#282826"/><circle cx="93" cy="267" r="1.55" fill="#282826"/><circle cx="99" cy="267" r="1.55" fill="#282826"/><circle cx="105" cy="267" r="1.55" fill="#282826"/><circle cx="111" cy="267" r="1.55" fill="#282826"/><circle cx="117" cy="267" r="1.55" fill="#282826"/><circle cx="123" cy="267" r="1.05" fill="#282826"/><circle cx="315" cy="267" r="1.05" fill="#282826"/><circle cx="321" cy="267" r="1.55" fill="#282826"/><circle cx="327" cy="267" r="1.55" fill="#282826"/><circle cx="333" cy="267" r="1.55" fill="#282826"/><circle cx="339" cy="267" r="1.55" fill="#282826"/><circle cx="345" cy="267" r="1.55" fill="#282826"/><circle cx="351" cy="267" r="1.55" fill="#282826"/><circle cx="357" cy="267" r="1.05" fill="#282826"/><circle cx="87" cy="273" r="1.05" fill="#282826"/><circle cx="93" cy="273" r="1.55" fill="#282826"/><circle cx="99" cy="273" r="1.55" fill="#282826"/><circle cx="105" cy="273" r="1.55" fill="#282826"/><circle cx="111" cy="273" r="1.55" fill="#282826"/><circle cx="117" cy="273" r="1.55" fill="#282826"/><circle cx="123" cy="273" r="1.55" fill="#282826"/><circle cx="129" cy="273" r="1.05" fill="#282826"/><circle cx="309" cy="273" r="1.05" fill="#282826"/><circle cx="315" cy="273" r="1.05" fill="#282826"/><circle cx="321" cy="273" r="1.55" fill="#282826"/><circle cx="327" cy="273" r="1.55" fill="#282826"/><circle cx="333" cy="273" r="1.55" fill="#282826"/><circle cx="339" cy="273" r="1.55" fill="#282826"/><circle cx="345" cy="273" r="1.55" fill="#282826"/><circle cx="351" cy="273" r="1.05" fill="#282826"/><circle cx="87" cy="279" r="1.05" fill="#282826"/><circle cx="93" cy="279" r="1.55" fill="#282826"/><circle cx="99" cy="279" r="1.55" fill="#282826"/><circle cx="105" cy="279" r="1.55" fill="#282826"/><circle cx="111" cy="279" r="1.55" fill="#282826"/><circle cx="117" cy="279" r="1.55" fill="#282826"/><circle cx="123" cy="279" r="1.55" fill="#282826"/><circle cx="129" cy="279" r="1.05" fill="#282826"/><circle cx="135" cy="279" r="1.05" fill="#282826"/><circle cx="309" cy="279" r="1.05" fill="#282826"/><circle cx="315" cy="279" r="1.55" fill="#282826"/><circle cx="321" cy="279" r="1.55" fill="#282826"/><circle cx="327" cy="279" r="1.55" fill="#282826"/><circle cx="333" cy="279" r="1.55" fill="#282826"/><circle cx="339" cy="279" r="1.55" fill="#282826"/><circle cx="345" cy="279" r="1.55" fill="#282826"/><circle cx="351" cy="279" r="1.05" fill="#282826"/><circle cx="93" cy="285" r="1.05" fill="#282826"/><circle cx="99" cy="285" r="1.55" fill="#282826"/><circle cx="105" cy="285" r="1.55" fill="#282826"/><circle cx="111" cy="285" r="1.55" fill="#282826"/><circle cx="117" cy="285" r="1.55" fill="#282826"/><circle cx="123" cy="285" r="1.55" fill="#282826"/><circle cx="129" cy="285" r="1.55" fill="#282826"/><circle cx="135" cy="285" r="1.05" fill="#282826"/><circle cx="303" cy="285" r="1.05" fill="#282826"/><circle cx="309" cy="285" r="1.55" fill="#282826"/><circle cx="315" cy="285" r="1.55" fill="#282826"/><circle cx="321" cy="285" r="1.55" fill="#282826"/><circle cx="327" cy="285" r="1.55" fill="#282826"/><circle cx="333" cy="285" r="1.55" fill="#282826"/><circle cx="339" cy="285" r="1.55" fill="#282826"/><circle cx="345" cy="285" r="1.05" fill="#282826"/><circle cx="93" cy="291" r="1.05" fill="#282826"/><circle cx="99" cy="291" r="1.05" fill="#282826"/><circle cx="105" cy="291" r="1.55" fill="#282826"/><circle cx="111" cy="291" r="1.55" fill="#282826"/><circle cx="117" cy="291" r="1.55" fill="#282826"/><circle cx="123" cy="291" r="1.55" fill="#282826"/><circle cx="129" cy="291" r="1.55" fill="#282826"/><circle cx="135" cy="291" r="1.55" fill="#282826"/><circle cx="141" cy="291" r="1.05" fill="#282826"/><circle cx="297" cy="291" r="1.05" fill="#282826"/><circle cx="303" cy="291" r="1.55" fill="#282826"/><circle cx="309" cy="291" r="1.55" fill="#282826"/><circle cx="315" cy="291" r="1.55" fill="#282826"/><circle cx="321" cy="291" r="1.55" fill="#282826"/><circle cx="327" cy="291" r="1.55" fill="#282826"/><circle cx="333" cy="291" r="1.55" fill="#282826"/><circle cx="339" cy="291" r="1.55" fill="#282826"/><circle cx="345" cy="291" r="1.05" fill="#282826"/><circle cx="99" cy="297" r="1.05" fill="#282826"/><circle cx="105" cy="297" r="1.55" fill="#282826"/><circle cx="111" cy="297" r="1.55" fill="#282826"/><circle cx="117" cy="297" r="1.55" fill="#282826"/><circle cx="123" cy="297" r="1.55" fill="#282826"/><circle cx="129" cy="297" r="1.55" fill="#282826"/><circle cx="135" cy="297" r="1.55" fill="#282826"/><circle cx="141" cy="297" r="1.55" fill="#282826"/><circle cx="147" cy="297" r="1.05" fill="#282826"/><circle cx="291" cy="297" r="1.05" fill="#282826"/><circle cx="297" cy="297" r="1.55" fill="#282826"/><circle cx="303" cy="297" r="1.55" fill="#282826"/><circle cx="309" cy="297" r="1.55" fill="#282826"/><circle cx="315" cy="297" r="1.55" fill="#282826"/><circle cx="321" cy="297" r="1.55" fill="#282826"/><circle cx="327" cy="297" r="1.55" fill="#282826"/><circle cx="333" cy="297" r="1.55" fill="#282826"/><circle cx="339" cy="297" r="1.05" fill="#282826"/><circle cx="105" cy="303" r="1.05" fill="#282826"/><circle cx="111" cy="303" r="1.55" fill="#282826"/><circle cx="117" cy="303" r="1.55" fill="#282826"/><circle cx="123" cy="303" r="1.55" fill="#282826"/><circle cx="129" cy="303" r="1.55" fill="#282826"/><circle cx="135" cy="303" r="1.55" fill="#282826"/><circle cx="141" cy="303" r="1.55" fill="#282826"/><circle cx="147" cy="303" r="1.55" fill="#282826"/><circle cx="153" cy="303" r="1.05" fill="#282826"/><circle cx="159" cy="303" r="1.05" fill="#282826"/><circle cx="285" cy="303" r="1.05" fill="#282826"/><circle cx="291" cy="303" r="1.55" fill="#282826"/><circle cx="297" cy="303" r="1.55" fill="#282826"/><circle cx="303" cy="303" r="1.55" fill="#282826"/><circle cx="309" cy="303" r="1.55" fill="#282826"/><circle cx="315" cy="303" r="1.55" fill="#282826"/><circle cx="321" cy="303" r="1.55" fill="#282826"/><circle cx="327" cy="303" r="1.55" fill="#282826"/><circle cx="333" cy="303" r="1.05" fill="#282826"/><circle cx="339" cy="303" r="1.05" fill="#282826"/><circle cx="105" cy="309" r="1.05" fill="#282826"/><circle cx="111" cy="309" r="1.05" fill="#282826"/><circle cx="117" cy="309" r="1.55" fill="#282826"/><circle cx="123" cy="309" r="1.55" fill="#282826"/><circle cx="129" cy="309" r="1.55" fill="#282826"/><circle cx="135" cy="309" r="1.55" fill="#282826"/><circle cx="141" cy="309" r="1.55" fill="#282826"/><circle cx="147" cy="309" r="1.55" fill="#282826"/><circle cx="153" cy="309" r="1.55" fill="#282826"/><circle cx="159" cy="309" r="1.05" fill="#282826"/><circle cx="165" cy="309" r="1.05" fill="#282826"/><circle cx="273" cy="309" r="1.05" fill="#282826"/><circle cx="279" cy="309" r="1.05" fill="#282826"/><circle cx="285" cy="309" r="1.55" fill="#282826"/><circle cx="291" cy="309" r="1.55" fill="#282826"/><circle cx="297" cy="309" r="1.55" fill="#282826"/><circle cx="303" cy="309" r="1.55" fill="#282826"/><circle cx="309" cy="309" r="1.55" fill="#282826"/><circle cx="315" cy="309" r="1.55" fill="#282826"/><circle cx="321" cy="309" r="1.55" fill="#282826"/><circle cx="327" cy="309" r="1.55" fill="#282826"/><circle cx="333" cy="309" r="1.05" fill="#282826"/><circle cx="111" cy="315" r="1.05" fill="#282826"/><circle cx="117" cy="315" r="1.05" fill="#282826"/><circle cx="123" cy="315" r="1.55" fill="#282826"/><circle cx="129" cy="315" r="1.55" fill="#282826"/><circle cx="135" cy="315" r="1.55" fill="#282826"/><circle cx="141" cy="315" r="1.55" fill="#282826"/><circle cx="147" cy="315" r="1.55" fill="#282826"/><circle cx="153" cy="315" r="1.55" fill="#282826"/><circle cx="159" cy="315" r="1.55" fill="#282826"/><circle cx="165" cy="315" r="1.55" fill="#282826"/><circle cx="171" cy="315" r="1.05" fill="#282826"/><circle cx="177" cy="315" r="1.05" fill="#282826"/><circle cx="261" cy="315" r="1.05" fill="#282826"/><circle cx="267" cy="315" r="1.05" fill="#282826"/><circle cx="273" cy="315" r="1.55" fill="#282826"/><circle cx="279" cy="315" r="1.55" fill="#282826"/><circle cx="285" cy="315" r="1.55" fill="#282826"/><circle cx="291" cy="315" r="1.55" fill="#282826"/><circle cx="297" cy="315" r="1.55" fill="#282826"/><circle cx="303" cy="315" r="1.55" fill="#282826"/><circle cx="309" cy="315" r="1.55" fill="#282826"/><circle cx="315" cy="315" r="1.55" fill="#282826"/><circle cx="321" cy="315" r="1.55" fill="#282826"/><circle cx="327" cy="315" r="1.05" fill="#282826"/><circle cx="117" cy="321" r="1.05" fill="#282826"/><circle cx="123" cy="321" r="1.05" fill="#282826"/><circle cx="129" cy="321" r="1.55" fill="#282826"/><circle cx="135" cy="321" r="1.55" fill="#282826"/><circle cx="141" cy="321" r="1.55" fill="#282826"/><circle cx="147" cy="321" r="1.55" fill="#282826"/><circle cx="153" cy="321" r="1.55" fill="#282826"/><circle cx="159" cy="321" r="1.55" fill="#282826"/><circle cx="165" cy="321" r="1.55" fill="#282826"/><circle cx="171" cy="321" r="1.55" fill="#282826"/><circle cx="177" cy="321" r="1.55" fill="#282826"/><circle cx="183" cy="321" r="1.05" fill="#282826"/><circle cx="189" cy="321" r="1.05" fill="#282826"/><circle cx="195" cy="321" r="1.05" fill="#282826"/><circle cx="201" cy="321" r="1.05" fill="#282826"/><circle cx="237" cy="321" r="1.05" fill="#282826"/><circle cx="243" cy="321" r="1.05" fill="#282826"/><circle cx="249" cy="321" r="1.05" fill="#282826"/><circle cx="255" cy="321" r="1.05" fill="#282826"/><circle cx="261" cy="321" r="1.55" fill="#282826"/><circle cx="267" cy="321" r="1.55" fill="#282826"/><circle cx="273" cy="321" r="1.55" fill="#282826"/><circle cx="279" cy="321" r="1.55" fill="#282826"/><circle cx="285" cy="321" r="1.55" fill="#282826"/><circle cx="291" cy="321" r="1.55" fill="#282826"/><circle cx="297" cy="321" r="1.55" fill="#282826"/><circle cx="303" cy="321" r="1.55" fill="#282826"/><circle cx="309" cy="321" r="1.55" fill="#282826"/><circle cx="315" cy="321" r="1.55" fill="#282826"/><circle cx="321" cy="321" r="1.05" fill="#282826"/><circle cx="123" cy="327" r="1.05" fill="#282826"/><circle cx="129" cy="327" r="1.05" fill="#282826"/><circle cx="135" cy="327" r="1.55" fill="#282826"/><circle cx="141" cy="327" r="1.55" fill="#282826"/><circle cx="147" cy="327" r="1.55" fill="#282826"/><circle cx="153" cy="327" r="1.55" fill="#282826"/><circle cx="159" cy="327" r="1.55" fill="#282826"/><circle cx="165" cy="327" r="1.55" fill="#282826"/><circle cx="171" cy="327" r="1.55" fill="#282826"/><circle cx="177" cy="327" r="1.55" fill="#282826"/><circle cx="183" cy="327" r="1.55" fill="#282826"/><circle cx="189" cy="327" r="1.55" fill="#282826"/><circle cx="195" cy="327" r="1.55" fill="#282826"/><circle cx="201" cy="327" r="1.55" fill="#282826"/><circle cx="207" cy="327" r="1.05" fill="#282826"/><circle cx="213" cy="327" r="1.05" fill="#282826"/><circle cx="219" cy="327" r="1.05" fill="#282826"/><circle cx="225" cy="327" r="1.05" fill="#282826"/><circle cx="231" cy="327" r="1.05" fill="#282826"/><circle cx="237" cy="327" r="1.55" fill="#282826"/><circle cx="243" cy="327" r="1.55" fill="#282826"/><circle cx="249" cy="327" r="1.55" fill="#282826"/><circle cx="255" cy="327" r="1.55" fill="#282826"/><circle cx="261" cy="327" r="1.55" fill="#282826"/><circle cx="267" cy="327" r="1.55" fill="#282826"/><circle cx="273" cy="327" r="1.55" fill="#282826"/><circle cx="279" cy="327" r="1.55" fill="#282826"/><circle cx="285" cy="327" r="1.55" fill="#282826"/><circle cx="291" cy="327" r="1.55" fill="#282826"/><circle cx="297" cy="327" r="1.55" fill="#282826"/><circle cx="303" cy="327" r="1.55" fill="#282826"/><circle cx="309" cy="327" r="1.55" fill="#282826"/><circle cx="315" cy="327" r="1.05" fill="#282826"/><circle cx="129" cy="333" r="1.05" fill="#282826"/><circle cx="135" cy="333" r="1.05" fill="#282826"/><circle cx="141" cy="333" r="1.55" fill="#282826"/><circle cx="147" cy="333" r="1.55" fill="#282826"/><circle cx="153" cy="333" r="1.55" fill="#282826"/><circle cx="159" cy="333" r="1.55" fill="#282826"/><circle cx="165" cy="333" r="1.55" fill="#282826"/><circle cx="171" cy="333" r="1.55" fill="#282826"/><circle cx="177" cy="333" r="1.55" fill="#282826"/><circle cx="183" cy="333" r="1.55" fill="#282826"/><circle cx="189" cy="333" r="1.55" fill="#282826"/><circle cx="195" cy="333" r="1.55" fill="#282826"/><circle cx="201" cy="333" r="1.55" fill="#282826"/><circle cx="207" cy="333" r="1.55" fill="#282826"/><circle cx="213" cy="333" r="1.55" fill="#282826"/><circle cx="219" cy="333" r="1.55" fill="#282826"/><circle cx="225" cy="333" r="1.55" fill="#282826"/><circle cx="231" cy="333" r="1.55" fill="#282826"/><circle cx="237" cy="333" r="1.55" fill="#282826"/><circle cx="243" cy="333" r="1.55" fill="#282826"/><circle cx="249" cy="333" r="1.55" fill="#282826"/><circle cx="255" cy="333" r="1.55" fill="#282826"/><circle cx="261" cy="333" r="1.55" fill="#282826"/><circle cx="267" cy="333" r="1.55" fill="#282826"/><circle cx="273" cy="333" r="1.55" fill="#282826"/><circle cx="279" cy="333" r="1.55" fill="#282826"/><circle cx="285" cy="333" r="1.55" fill="#282826"/><circle cx="291" cy="333" r="1.55" fill="#282826"/><circle cx="297" cy="333" r="1.55" fill="#282826"/><circle cx="303" cy="333" r="1.05" fill="#282826"/><circle cx="309" cy="333" r="1.05" fill="#282826"/><circle cx="141" cy="339" r="1.05" fill="#282826"/><circle cx="147" cy="339" r="1.05" fill="#282826"/><circle cx="153" cy="339" r="1.55" fill="#282826"/><circle cx="159" cy="339" r="1.55" fill="#282826"/><circle cx="165" cy="339" r="1.55" fill="#282826"/><circle cx="171" cy="339" r="1.55" fill="#282826"/><circle cx="177" cy="339" r="1.55" fill="#282826"/><circle cx="183" cy="339" r="1.55" fill="#282826"/><circle cx="189" cy="339" r="1.55" fill="#282826"/><circle cx="195" cy="339" r="1.55" fill="#282826"/><circle cx="201" cy="339" r="1.55" fill="#282826"/><circle cx="207" cy="339" r="1.55" fill="#282826"/><circle cx="213" cy="339" r="1.55" fill="#282826"/><circle cx="219" cy="339" r="1.55" fill="#282826"/><circle cx="225" cy="339" r="1.55" fill="#282826"/><circle cx="231" cy="339" r="1.55" fill="#282826"/><circle cx="237" cy="339" r="1.55" fill="#282826"/><circle cx="243" cy="339" r="1.55" fill="#282826"/><circle cx="249" cy="339" r="1.55" fill="#282826"/><circle cx="255" cy="339" r="1.55" fill="#282826"/><circle cx="261" cy="339" r="1.55" fill="#282826"/><circle cx="267" cy="339" r="1.55" fill="#282826"/><circle cx="273" cy="339" r="1.55" fill="#282826"/><circle cx="279" cy="339" r="1.55" fill="#282826"/><circle cx="285" cy="339" r="1.55" fill="#282826"/><circle cx="291" cy="339" r="1.55" fill="#282826"/><circle cx="297" cy="339" r="1.05" fill="#282826"/><circle cx="303" cy="339" r="1.05" fill="#282826"/><circle cx="147" cy="345" r="1.05" fill="#282826"/><circle cx="153" cy="345" r="1.05" fill="#282826"/><circle cx="159" cy="345" r="1.55" fill="#282826"/><circle cx="165" cy="345" r="1.55" fill="#282826"/><circle cx="171" cy="345" r="1.55" fill="#282826"/><circle cx="177" cy="345" r="1.55" fill="#282826"/><circle cx="183" cy="345" r="1.55" fill="#282826"/><circle cx="189" cy="345" r="1.55" fill="#282826"/><circle cx="195" cy="345" r="1.55" fill="#282826"/><circle cx="201" cy="345" r="1.55" fill="#282826"/><circle cx="207" cy="345" r="1.55" fill="#282826"/><circle cx="213" cy="345" r="1.55" fill="#282826"/><circle cx="219" cy="345" r="1.55" fill="#282826"/><circle cx="225" cy="345" r="1.55" fill="#282826"/><circle cx="231" cy="345" r="1.55" fill="#282826"/><circle cx="237" cy="345" r="1.55" fill="#282826"/><circle cx="243" cy="345" r="1.55" fill="#282826"/><circle cx="249" cy="345" r="1.55" fill="#282826"/><circle cx="255" cy="345" r="1.55" fill="#282826"/><circle cx="261" cy="345" r="1.55" fill="#282826"/><circle cx="267" cy="345" r="1.55" fill="#282826"/><circle cx="273" cy="345" r="1.55" fill="#282826"/><circle cx="279" cy="345" r="1.55" fill="#282826"/><circle cx="285" cy="345" r="1.05" fill="#282826"/><circle cx="291" cy="345" r="1.05" fill="#282826"/><circle cx="159" cy="351" r="1.05" fill="#282826"/><circle cx="165" cy="351" r="1.05" fill="#282826"/><circle cx="171" cy="351" r="1.05" fill="#282826"/><circle cx="177" cy="351" r="1.55" fill="#282826"/><circle cx="183" cy="351" r="1.55" fill="#282826"/><circle cx="189" cy="351" r="1.55" fill="#282826"/><circle cx="195" cy="351" r="1.55" fill="#282826"/><circle cx="201" cy="351" r="1.55" fill="#282826"/><circle cx="207" cy="351" r="1.55" fill="#282826"/><circle cx="213" cy="351" r="1.55" fill="#282826"/><circle cx="219" cy="351" r="1.55" fill="#282826"/><circle cx="225" cy="351" r="1.55" fill="#282826"/><circle cx="231" cy="351" r="1.55" fill="#282826"/><circle cx="237" cy="351" r="1.55" fill="#282826"/><circle cx="243" cy="351" r="1.55" fill="#282826"/><circle cx="249" cy="351" r="1.55" fill="#282826"/><circle cx="255" cy="351" r="1.55" fill="#282826"/><circle cx="261" cy="351" r="1.55" fill="#282826"/><circle cx="267" cy="351" r="1.05" fill="#282826"/><circle cx="273" cy="351" r="1.05" fill="#282826"/><circle cx="279" cy="351" r="1.05" fill="#282826"/><circle cx="177" cy="357" r="1.05" fill="#282826"/><circle cx="183" cy="357" r="1.05" fill="#282826"/><circle cx="189" cy="357" r="1.05" fill="#282826"/><circle cx="195" cy="357" r="1.05" fill="#282826"/><circle cx="201" cy="357" r="1.55" fill="#282826"/><circle cx="207" cy="357" r="1.55" fill="#282826"/><circle cx="213" cy="357" r="1.55" fill="#282826"/><circle cx="219" cy="357" r="1.55" fill="#282826"/><circle cx="225" cy="357" r="1.55" fill="#282826"/><circle cx="231" cy="357" r="1.55" fill="#282826"/><circle cx="237" cy="357" r="1.55" fill="#282826"/><circle cx="243" cy="357" r="1.55" fill="#282826"/><circle cx="249" cy="357" r="1.05" fill="#282826"/><circle cx="255" cy="357" r="1.05" fill="#282826"/><circle cx="261" cy="357" r="1.05" fill="#282826"/><circle cx="267" cy="357" r="1.05" fill="#282826"/><circle cx="201" cy="363" r="1.05" fill="#282826"/><circle cx="207" cy="363" r="1.05" fill="#282826"/><circle cx="213" cy="363" r="1.05" fill="#282826"/><circle cx="219" cy="363" r="1.05" fill="#282826"/><circle cx="225" cy="363" r="1.05" fill="#282826"/><circle cx="231" cy="363" r="1.05" fill="#282826"/><circle cx="237" cy="363" r="1.05" fill="#282826"/><circle cx="243" cy="363" r="1.05" fill="#282826"/><g fill="none" stroke="#282826" stroke-width="17" stroke-linecap="round" stroke-linejoin="round"><path d="m165 180 28 78 27-63"/><path d="m220 195 27 63 28-78"/></g><circle cx="350" cy="218" r="13" fill="#d8271c"/><circle cx="350" cy="218" r="4" fill="#f66b5e"/><path d="M89 369h76m110 0h76" stroke="#b8b8b2" stroke-width="1"/><g fill="#999992"><circle cx="211" cy="369" r="2"/><circle cx="220" cy="369" r="2"/><circle cx="229" cy="369" r="2"/></g></svg>